<svg xmlns="http://www.w3.org/2000/svg" width="256" height="256" viewBox="0 0 100 100"><rect width="100" height="100" rx="20" fill="#7d6ee7"></rect><path fill="#fff" d="M31.69 77.72L31.69 77.72Q25.39 77.72 21.47 74.93Q17.56 72.14 17.56 65.66L17.56 65.66L17.56 22.91Q18.01 22.73 18.95 22.51Q19.90 22.28 20.98 22.28L20.98 22.28Q24.76 22.28 24.76 25.52L24.76 25.52L24.76 35.87L39.52 35.87Q39.79 36.32 40.06 37.09Q40.33 37.85 40.33 38.75L40.33 38.75Q40.33 41.81 37.63 41.81L37.63 41.81L24.76 41.81L24.76 65.21Q24.76 68.81 26.78 70.30Q28.81 71.78 32.50 71.78L32.50 71.78Q34.03 71.78 35.92 71.24Q37.81 70.70 39.07 69.98L39.07 69.98Q39.61 70.52 40.06 71.33Q40.51 72.14 40.51 73.22L40.51 73.22Q40.51 75.20 38.17 76.46Q35.83 77.72 31.69 77.72ZM49.69 76.55L49.69 76.55Q48.25 75.38 48.25 73.40L48.25 73.40Q48.25 72.32 48.70 71.38Q49.15 70.43 49.87 69.53L49.87 69.53L72.73 40.91L49.60 40.91Q49.33 40.46 49.06 39.70Q48.79 38.93 48.79 37.94L48.79 37.94Q48.79 34.97 51.49 34.97L51.49 34.97L80.28 34.97Q81.81 36.23 81.81 38.21L81.81 38.21Q81.81 40.01 80.11 41.99L80.11 41.99L57.25 70.70L81.64 70.70Q81.91 71.15 82.18 71.87Q82.45 72.59 82.45 73.58L82.45 73.58Q82.45 76.55 79.66 76.55L79.66 76.55L49.69 76.55Z"></path></svg>